<svg width="24" height="25" viewBox="0 0 24 25" fill="none" xmlns="http://www.w3.org/2000/svg">
<g id="Icon">
<path id="icon" d="M12 22.6914C10.6333 22.6914 9.34167 22.4289 8.125 21.9039C6.90833 21.3789 5.84583 20.6622 4.9375 19.7539C4.02917 18.8456 3.3125 17.7831 2.7875 16.5664C2.2625 15.3497 2 14.0581 2 12.6914C2 11.3081 2.2625 10.0122 2.7875 8.80391C3.3125 7.59557 4.02917 6.53724 4.9375 5.62891C5.84583 4.72057 6.90833 4.00391 8.125 3.47891C9.34167 2.95391 10.6333 2.69141 12 2.69141C13.3833 2.69141 14.6792 2.95391 15.8875 3.47891C17.0958 4.00391 18.1542 4.72057 19.0625 5.62891C19.9708 6.53724 20.6875 7.59557 21.2125 8.80391C21.7375 10.0122 22 11.3081 22 12.6914C22 14.0581 21.7375 15.3497 21.2125 16.5664C20.6875 17.7831 19.9708 18.8456 19.0625 19.7539C18.1542 20.6622 17.0958 21.3789 15.8875 21.9039C14.6792 22.4289 13.3833 22.6914 12 22.6914ZM12 20.6414C12.4333 20.0414 12.8083 19.4164 13.125 18.7664C13.4417 18.1164 13.7 17.4247 13.9 16.6914H10.1C10.3 17.4247 10.5583 18.1164 10.875 18.7664C11.1917 19.4164 11.5667 20.0414 12 20.6414ZM9.4 20.2414C9.1 19.6914 8.8375 19.1206 8.6125 18.5289C8.3875 17.9372 8.2 17.3247 8.05 16.6914H5.1C5.58333 17.5247 6.1875 18.2497 6.9125 18.8664C7.6375 19.4831 8.46667 19.9414 9.4 20.2414ZM14.6 20.2414C15.5333 19.9414 16.3625 19.4831 17.0875 18.8664C17.8125 18.2497 18.4167 17.5247 18.9 16.6914H15.95C15.8 17.3247 15.6125 17.9372 15.3875 18.5289C15.1625 19.1206 14.9 19.6914 14.6 20.2414ZM4.25 14.6914H7.65C7.6 14.3581 7.5625 14.0289 7.5375 13.7039C7.5125 13.3789 7.5 13.0414 7.5 12.6914C7.5 12.3414 7.5125 12.0039 7.5375 11.6789C7.5625 11.3539 7.6 11.0247 7.65 10.6914H4.25C4.16667 11.0247 4.10417 11.3539 4.0625 11.6789C4.02083 12.0039 4 12.3414 4 12.6914C4 13.0414 4.02083 13.3789 4.0625 13.7039C4.10417 14.0289 4.16667 14.3581 4.25 14.6914ZM9.65 14.6914H14.35C14.4 14.3581 14.4375 14.0289 14.4625 13.7039C14.4875 13.3789 14.5 13.0414 14.5 12.6914C14.5 12.3414 14.4875 12.0039 14.4625 11.6789C14.4375 11.3539 14.4 11.0247 14.35 10.6914H9.65C9.6 11.0247 9.5625 11.3539 9.5375 11.6789C9.5125 12.0039 9.5 12.3414 9.5 12.6914C9.5 13.0414 9.5125 13.3789 9.5375 13.7039C9.5625 14.0289 9.6 14.3581 9.65 14.6914ZM16.35 14.6914H19.75C19.8333 14.3581 19.8958 14.0289 19.9375 13.7039C19.9792 13.3789 20 13.0414 20 12.6914C20 12.3414 19.9792 12.0039 19.9375 11.6789C19.8958 11.3539 19.8333 11.0247 19.75 10.6914H16.35C16.4 11.0247 16.4375 11.3539 16.4625 11.6789C16.4875 12.0039 16.5 12.3414 16.5 12.6914C16.5 13.0414 16.4875 13.3789 16.4625 13.7039C16.4375 14.0289 16.4 14.3581 16.35 14.6914ZM15.95 8.69141H18.9C18.4167 7.85807 17.8125 7.13307 17.0875 6.51641C16.3625 5.89974 15.5333 5.44141 14.6 5.14141C14.9 5.69141 15.1625 6.26224 15.3875 6.85391C15.6125 7.44557 15.8 8.05807 15.95 8.69141ZM10.1 8.69141H13.9C13.7 7.95807 13.4417 7.26641 13.125 6.61641C12.8083 5.96641 12.4333 5.34141 12 4.74141C11.5667 5.34141 11.1917 5.96641 10.875 6.61641C10.5583 7.26641 10.3 7.95807 10.1 8.69141ZM5.1 8.69141H8.05C8.2 8.05807 8.3875 7.44557 8.6125 6.85391C8.8375 6.26224 9.1 5.69141 9.4 5.14141C8.46667 5.44141 7.6375 5.89974 6.9125 6.51641C6.1875 7.13307 5.58333 7.85807 5.1 8.69141Z" fill="white"/>
</g>
</svg>
