<svg width="131" height="50" viewBox="0 0 131 50" fill="none" xmlns="http://www.w3.org/2000/svg">
<path d="M23.094 25.3622C23.1599 25.3622 23.2917 25.4281 23.4234 25.5104C23.6375 25.6257 23.9174 25.7904 24.2468 25.7904C24.8726 25.7904 25.3996 25.247 25.3996 24.6212C25.3996 23.9954 24.9055 23.5013 24.2962 23.5013C22.9294 23.5013 20.8873 25.7575 16.8033 30.7967C13.4273 34.996 11.0559 37.598 8.99743 39.36C11.4512 35.6218 12.9827 32.0482 13.7896 28.1289C16.3422 27.6348 17.9231 25.9221 17.9231 24.6047C17.9231 23.8307 17.4291 23.3037 16.7045 23.3037C15.4035 23.3037 13.8226 24.6706 12.2416 27.1572C11.9123 26.9926 11.7476 26.5809 11.4841 25.988C11.4182 25.8398 11.3524 25.6751 11.27 25.494C10.5948 23.9625 9.67262 23.2708 8.27284 23.2708C6.36255 23.2708 4.17231 24.2095 2.57491 25.7081C1.25747 26.9596 0.499939 28.6064 0.499939 30.2038C0.499939 32.1306 1.73504 33.4151 3.59592 33.4151C6.34608 33.4151 8.75041 30.4508 8.75041 27.0914C8.75041 26.5644 8.63514 26.2844 8.38812 26.2844C8.09169 26.2844 8.00935 26.5809 7.87761 27.0584C7.7788 27.4372 7.63059 27.9642 7.33416 28.5735C6.28021 30.7308 4.61694 32.0647 3.00308 32.0647C1.98206 32.0647 1.27394 31.2578 1.27394 30.0886C1.27394 28.59 2.13027 27.0255 3.62886 25.8069C4.78162 24.8517 6.24727 24.2424 7.35063 24.2424C8.12463 24.2424 8.38811 24.7529 8.81628 25.5269C8.98096 25.8398 9.17858 26.2186 9.44207 26.5644C10.1337 27.5195 10.8748 27.9971 11.8135 28.1124C11.0889 29.6768 10.5948 31.3401 10.1008 32.954C9.55734 34.7325 8.99743 36.5605 8.1411 38.2896C7.59765 39.393 7.12008 40.1176 6.79072 40.5787C6.49429 41.0233 6.31315 41.2868 6.31315 41.5503C6.31315 41.7973 6.52723 41.9785 6.72485 41.9785C7.16948 41.9785 10.1831 39.8211 14.3825 34.9795C15.9634 33.1681 17.2808 31.5377 18.4501 30.105C20.6732 27.3549 22.3036 25.3622 23.094 25.3622ZM14.0202 27.2725C14.7777 25.3128 15.8317 24.1107 16.7868 24.1107C16.9515 24.1107 17.1656 24.3247 17.1656 24.6047C17.1656 25.4281 15.9469 26.8444 14.0202 27.2725Z" fill="#E88C01"/>
<path d="M19.9323 30.6155C19.9323 31.1424 20.3276 31.5377 20.8381 31.5377C21.4968 31.5377 22.0402 30.8131 22.0402 30.2202C22.0402 29.6768 21.6779 29.298 21.1674 29.298C20.4922 29.298 19.9323 30.0226 19.9323 30.6155Z" fill="#E88C01"/>
<path d="M40.9127 37.5981C40.7315 37.5981 40.5998 37.7298 40.3034 38.0756C40.1387 38.2568 39.9246 38.5038 39.6282 38.8002C37.8661 40.6282 37.2897 40.8258 37.125 40.8258C36.9933 40.8258 36.9768 40.8258 36.9768 40.6446C36.9768 40.2329 37.3391 39.6566 37.8496 38.8496L40.7809 34.2386L38.6401 34.3703L38.0472 35.2431C37.932 34.5844 37.3556 34.1562 36.5487 34.1562C35.2148 34.1562 33.5515 35.062 31.9706 36.6265C31.493 37.104 31.1636 37.4663 30.966 37.7298C30.8672 37.8122 30.7684 37.9274 30.6202 38.0921C30.4555 38.2733 30.2579 38.5038 29.9779 38.7838C28.6605 40.1012 27.87 40.8587 27.1784 40.8587C27.0466 40.8587 26.9478 40.7599 26.9478 40.6117C26.9478 40.2494 27.4583 39.4425 28.117 38.4215L35.9229 26.0211L33.7656 26.3175L28.8746 33.9092C28.8746 33.9092 28.2323 34.7326 26.7502 36.3465L25.9597 37.2028C25.7621 37.4334 25.6139 37.6145 25.4986 37.7627C25.4163 37.8451 25.3175 37.9439 25.1857 38.1086C25.0211 38.2897 24.8234 38.5367 24.5435 38.8002C23.226 40.1177 22.4356 40.8752 21.7439 40.8752C21.6122 40.8752 21.5134 40.7764 21.5134 40.6282C21.5134 40.2659 22.0239 39.459 22.6826 38.4379L30.4884 26.0375L28.3311 26.3339L23.4401 33.9257C23.4401 33.9257 22.7979 34.7491 21.3158 36.363L20.5253 37.2193C20.3112 37.4663 20.1795 37.631 20.0807 37.7463C19.9654 37.8451 19.8336 37.9933 19.6195 38.2239C19.4878 38.3885 19.3067 38.5697 19.0926 38.8002C17.7257 40.2494 16.9023 40.8752 16.3753 40.8752C16.2765 40.8752 16.1777 40.7435 16.1777 40.6282C16.1777 40.2659 16.6882 39.459 17.347 38.4379L19.9983 34.2551L17.7257 34.4197L17.6763 34.4856C14.498 37.7792 14.498 38.0756 14.498 38.1909C14.498 38.3391 14.5968 38.4873 14.8109 38.4873C15.025 38.4873 15.1897 38.3062 15.6014 37.8451C15.1238 38.6685 14.8603 39.2943 14.8603 39.9201C14.8603 40.974 15.4861 41.6821 16.4083 41.6821C17.2482 41.6821 18.121 40.9411 19.5537 39.4754C20.1465 38.8496 20.4429 38.5367 20.6076 38.3227C20.69 38.2403 20.7888 38.1415 20.9041 37.9933C20.4924 38.7179 20.2618 39.3272 20.2618 39.9201C20.2618 40.974 20.8876 41.6821 21.8098 41.6821C22.6497 41.6821 23.5225 40.9411 24.9552 39.4754C25.548 38.8496 25.8445 38.5367 26.0091 38.3227C26.0915 38.2403 26.1903 38.1415 26.3056 37.9933C25.8939 38.7179 25.6633 39.3272 25.6633 39.9201C25.6633 40.974 26.2891 41.6821 27.2113 41.6821C28.0512 41.6821 28.924 40.9411 30.3567 39.4754C30.7519 39.0802 30.9989 38.8002 31.1801 38.6026C31.1636 38.7179 31.1636 38.8496 31.1636 38.9649C31.1636 40.6446 31.7894 41.6821 32.8104 41.6821C33.6503 41.6821 34.589 41.1222 35.577 40.0189C35.577 40.1012 35.5606 40.1671 35.5606 40.2329C35.5606 41.1387 36.0217 41.6821 36.7792 41.6821C37.7673 41.6821 38.6566 40.8587 40.0069 39.4754C41.1103 38.3721 41.1926 38.125 41.1926 37.9439C41.275 37.7627 41.1597 37.5981 40.9127 37.5981ZM37.2239 35.5066C37.2239 36.4782 36.4663 37.8945 35.1983 39.2943C34.2102 40.3812 33.4527 40.7764 33.0739 40.7764C32.7281 40.7764 32.6951 40.3976 32.6951 40.2329C32.6951 39.6072 33.0574 38.3391 34.1114 36.8735C34.9842 35.6713 35.9064 34.9797 36.6475 34.9797C36.9604 34.9632 37.2239 35.2102 37.2239 35.5066Z" fill="#E88C01"/>
<path d="M75.3472 37.5978C75.1661 37.5978 75.0179 37.7624 74.5403 38.273C74.3591 38.4706 74.1451 38.7176 73.8816 38.9975C73.9145 38.7835 73.931 38.5694 73.931 38.3553C73.931 37.8448 73.8157 37.3343 73.6839 36.8402C73.5687 36.3627 73.4534 35.8851 73.4534 35.424C73.4534 34.9299 73.5193 34.897 73.7663 34.7982C73.8157 34.7817 73.8816 34.7488 73.931 34.7323C74.3591 34.5512 74.5732 34.2877 74.5732 33.9254C74.5732 33.4972 74.3097 33.2502 73.8651 33.2502C73.3875 33.2502 72.9923 33.629 72.6794 34.3865C72.2183 34.8805 71.8066 35.3252 71.4443 35.7204C70.6209 36.6097 70.0939 37.1861 69.7975 37.5484L69.4681 37.9271C68.793 38.6682 68.0519 38.9317 67.5908 38.9317H67.5743C68.4142 37.8118 68.76 36.9555 68.76 36.0992C68.76 34.897 68.0025 34.123 66.8497 34.123C65.5488 34.123 63.869 35.1111 62.3704 36.7414C61.9587 37.2025 61.6788 37.5154 61.5306 37.713L61.4318 37.8119C61.3329 37.9271 61.2012 38.0589 61.053 38.2071C59.6038 39.6233 58.451 40.2162 57.0513 40.2162C55.8491 40.2162 54.3176 39.9033 52.7202 39.3269C54.6799 37.6966 56.2937 35.5228 57.9076 32.3115C62.8315 30.2201 65.9934 27.3711 65.9934 25.0491C65.9934 24.2257 65.3841 23.6329 64.5277 23.6329C63.4903 23.6329 62.1399 24.374 60.1967 26.0537C58.3028 24.0611 55.9644 23.0236 53.4283 23.0236C49.5913 23.0236 46.8082 25.2962 46.8082 28.4251C46.8082 31.2082 49.3442 33.1514 52.9672 33.1514C53.7247 33.1514 54.4493 33.102 55.2068 32.9867C53.6589 35.9674 52.4567 38.1247 51.4192 38.9317C49.6736 38.4376 48.2244 38.0753 46.7752 38.0753C45.112 38.0753 44.0745 38.7341 44.0745 39.788C44.0745 40.8914 45.2766 41.5995 47.1375 41.5995C48.4714 41.5995 49.723 41.2207 51.2875 40.3479C53.4118 41.1384 55.0751 41.6489 56.2773 41.6489C57.7264 41.6489 59.4885 40.7432 61.3329 39.0305C61.4976 38.8658 61.6623 38.7176 61.794 38.5694C61.7776 38.6847 61.7776 38.7835 61.7776 38.8823C61.7776 40.6443 62.4528 41.6489 63.6385 41.6489C64.6101 41.6489 65.7793 40.9572 66.965 39.6727C67.1626 39.7057 67.3273 39.7057 67.459 39.7057C68.4471 39.7057 69.4187 39.2116 70.1269 38.3553L70.2586 38.1906C70.4233 38.0259 70.6044 37.7954 70.8844 37.4825C71.3126 36.972 71.9054 36.2968 72.6959 35.4569C72.7123 35.6381 72.7123 35.7698 72.7123 35.9016C72.7123 39.1458 71.1314 40.8255 70.4398 40.8255C70.3574 40.8255 70.2915 40.809 70.2915 40.7761C70.2915 40.6443 70.3574 40.4961 70.4398 40.3479C70.5221 40.1832 70.588 40.0186 70.588 39.8374C70.588 39.4586 70.2586 39.1622 69.8634 39.1622C69.3529 39.1622 68.8918 39.6398 68.8918 40.1668C68.8918 41.056 69.6493 41.6654 70.7691 41.6654C72.136 41.6654 73.2228 40.7926 74.6556 39.294C75.4625 38.4706 75.6766 38.1741 75.6766 37.9601C75.7095 37.7789 75.5942 37.5978 75.3472 37.5978ZM66.0263 39.4257C65.1371 40.3973 64.2807 40.8255 63.869 40.8255C63.5891 40.8255 63.3256 40.7432 63.3256 40.1503C63.3256 39.4751 63.6714 38.2565 64.6595 36.8567C65.5488 35.5887 66.3227 34.9629 66.9815 34.9629C67.4426 34.9629 67.7061 35.3252 67.7061 35.9839C67.7225 36.9884 67.0638 38.3059 66.0263 39.4257ZM56.0632 31.4387C55.0916 31.5869 54.334 31.6693 53.6918 31.6693C50.2335 31.6693 47.8127 30.1542 47.8127 27.9969C47.8127 25.5432 50.1676 23.7646 53.3954 23.7646C55.7997 23.7646 57.957 24.7527 59.6532 26.6136C58.3852 27.931 57.2324 29.4626 56.0632 31.4387ZM61.547 28.8533C61.6788 28.8533 61.8435 28.7544 61.8435 28.491C61.8435 28.3921 61.8435 28.1287 61.0201 26.9759C62.4692 25.2303 63.8196 24.4563 64.5113 24.4563C65.0382 24.4563 65.2523 24.6868 65.2523 25.1974C65.2523 26.7124 62.9962 29.0838 58.6816 30.78C59.2086 29.6931 59.8014 28.6886 60.526 27.6511C60.7072 27.8981 60.8554 28.1287 60.9542 28.2933C61.1847 28.6392 61.3165 28.8533 61.547 28.8533ZM50.1841 39.9198C49.2454 40.5291 48.2244 40.842 47.2034 40.842C45.886 40.842 45.0625 40.315 45.0625 39.8209C45.0625 39.3434 45.6225 39.047 46.5611 39.047C47.681 39.0634 48.8667 39.4422 50.1841 39.9198Z" fill="#E88C01"/>
<path d="M130.153 37.5978C129.972 37.5978 129.823 37.7625 129.346 38.273C129.181 38.4706 128.951 38.7177 128.687 38.9976C128.72 38.7835 128.736 38.5694 128.736 38.3554C128.736 37.8449 128.621 37.3343 128.489 36.8403C128.374 36.3627 128.259 35.8852 128.259 35.4241C128.259 34.93 128.325 34.8971 128.572 34.7983C128.621 34.7818 128.687 34.7489 128.736 34.7324C129.165 34.5513 129.379 34.2878 129.379 33.9255C129.379 33.4973 129.115 33.2503 128.671 33.2503C128.193 33.2503 127.798 33.629 127.485 34.3866C127.057 34.8477 126.678 35.2758 126.332 35.6546L126.266 35.7369C125.229 36.8568 124.685 37.4661 124.455 37.7954C124.372 37.8778 124.257 37.9931 124.125 38.1577C123.911 38.3883 123.631 38.7177 123.22 39.1294C121.968 40.3645 121.128 40.8585 120.354 40.8585C119.844 40.8585 119.58 40.5456 119.58 39.9363C119.58 39.7387 119.63 39.4423 119.679 39.1294C122.693 38.4048 124.636 36.9885 124.636 35.5064C124.636 34.7159 123.994 34.156 123.071 34.156C121.589 34.156 119.992 35.0618 118.411 36.7744C117.966 37.252 117.67 37.5978 117.538 37.8119C117.456 37.8943 117.357 38.026 117.225 38.1577C116.764 38.7012 115.908 39.6563 114.525 40.6773C115.546 38.7671 116.715 36.7086 118.016 34.5842L118.23 34.2384L116.204 34.3701L116.138 34.4689C113.553 38.8329 111.066 40.6773 110.506 40.6773C110.44 40.6773 110.325 40.5621 110.325 40.3974C110.325 40.1174 110.803 39.3764 111.478 38.3554L111.643 38.1083C112.235 37.2355 112.68 36.4945 112.68 35.6381C112.68 34.7324 112.17 34.1231 111.412 34.1231C110.44 34.1231 109.601 34.963 108.3 36.3463L107.509 37.2026C107.312 37.4332 107.147 37.6143 107.048 37.7625C106.966 37.8449 106.867 37.9601 106.719 38.1248C106.505 38.3554 106.225 38.6847 105.813 39.0964C104.561 40.3315 103.722 40.8256 102.948 40.8256C102.437 40.8256 102.174 40.5127 102.174 39.9034C102.174 39.7057 102.223 39.4093 102.272 39.0964C105.286 38.3718 107.229 36.9556 107.229 35.4735C107.229 34.683 106.587 34.1231 105.665 34.1231C104.183 34.1231 102.585 35.0288 101.004 36.7415C100.626 37.1532 100.346 37.4661 100.197 37.6802C100.115 37.7625 100.033 37.8778 99.9009 38.026C99.7363 38.2236 99.5057 38.5036 99.2093 38.8329C97.7601 40.4139 97.0685 40.5785 96.8379 40.5785C96.6403 40.5785 96.4921 40.3315 96.4921 40.0351C96.4921 39.6234 96.6403 39.0635 96.805 38.4212C97.019 37.5978 97.2661 36.6756 97.2661 35.7534C97.2661 34.683 96.7062 33.662 95.7181 32.9539C98.4024 32.3939 100.56 30.2531 100.56 28.1123C100.56 26.7619 99.7363 25.4938 98.3365 24.6704C98.4847 24.5716 98.6 24.5058 98.7152 24.4399C99.0117 24.2587 99.2093 24.1435 99.2093 23.9129C99.2093 23.7647 99.0776 23.6 98.847 23.6C98.5835 23.6 98.3036 23.7812 97.8424 24.0776C97.7436 24.1435 97.6448 24.2093 97.5296 24.2917C96.2451 23.7482 94.6641 23.4847 92.8362 23.4847C91.8481 23.4847 90.86 23.6 89.8061 23.8306C88.9497 23.2048 87.8464 22.8919 86.5125 22.8919C84.1081 22.8919 81.7367 24.0941 80.1723 26.1196C79.0689 27.5359 78.7066 28.738 78.7066 29.0839C78.7066 29.3144 78.8548 29.4626 79.0854 29.4626C79.2995 29.4626 79.3653 29.2815 79.4806 28.9521C79.6124 28.5569 79.8594 27.9146 80.3699 27.1406C81.7697 25.0986 84.174 23.6659 86.2325 23.6659C87.2206 23.6659 87.9616 23.8141 88.5874 24.1435C83.6141 25.7409 80.6334 29.4626 80.6334 32.1963C80.6334 34.1231 81.8191 35.2594 83.8282 35.2594C85.4256 35.2594 87.4676 34.3207 88.7686 32.9539C90.2507 31.4223 91.1564 29.265 91.1564 27.3218C91.1564 26.2678 90.893 25.3456 90.366 24.5058C91.1235 24.3246 91.914 24.2423 92.7374 24.2423C94.3842 24.2423 95.6193 24.4564 96.6073 24.9175C93.5608 27.1901 91.8646 29.9731 90.119 33.1021C87.4347 37.9601 85.3268 40.7762 82.4778 40.7762C81.605 40.7762 81.078 40.3974 81.078 40.0516C81.078 39.9198 81.1439 39.7716 81.2098 39.5905C81.2921 39.3764 81.3744 39.1623 81.3744 38.9482C81.3744 38.273 80.7816 37.6802 80.1064 37.6802C79.3324 37.6802 78.756 38.3718 78.756 39.294C78.756 40.6444 80.0899 41.5996 82.0167 41.5996C85.4091 41.5996 88.9168 39.0635 91.634 34.6501C92.0292 33.9913 92.408 33.3491 92.7538 32.7233C92.7538 32.7398 92.7538 32.7398 92.7538 32.7562C92.7538 32.9209 92.8197 33.4314 93.709 33.4314C93.9395 33.4314 94.1536 33.415 94.3512 33.382C94.483 33.3656 94.5818 33.3491 94.6806 33.3491C95.0429 33.3491 95.3228 33.7937 95.3228 34.3866C95.3228 34.9465 95.1582 35.5723 94.9935 36.231C94.7959 37.005 94.5818 37.8119 94.5818 38.6353C94.5818 40.348 95.6028 41.5008 96.5579 41.5008C97.3978 41.5008 98.4682 40.7597 99.8351 39.2446C100.115 38.9317 100.346 38.6518 100.51 38.4377C100.51 38.5365 100.494 38.6189 100.494 38.7177C100.494 40.3809 101.465 41.5831 102.799 41.5831C103.886 41.5831 104.94 40.9738 106.422 39.5081C107.081 38.8329 107.394 38.4871 107.575 38.2565C107.674 38.1577 107.789 38.026 107.954 37.8284C108.102 37.6472 108.3 37.4332 108.53 37.1697C109.568 36.0498 110.688 34.9135 111.198 34.9135C111.313 34.9135 111.346 34.93 111.346 34.93C111.346 34.9465 111.346 34.9959 111.346 35.0124C111.346 35.3747 110.836 36.1157 110.408 36.725L110.276 36.8897C109.634 37.746 109.041 38.5695 109.041 39.7222C109.041 40.8091 109.683 41.3855 110.292 41.3855C111.05 41.3855 112.12 40.6774 113.487 39.294L112.318 41.5502C107.559 44.3332 105.714 46.0789 105.714 47.7751C105.714 48.6973 106.241 49.2242 107.18 49.2242C108.909 49.2242 111.297 46.5894 113.734 42.0113C115.826 40.7268 117.291 39.2776 117.917 38.4706C117.917 38.553 117.9 38.6353 117.9 38.7177C117.9 40.3809 118.872 41.5831 120.206 41.5831C121.293 41.5831 122.347 40.9738 123.829 39.5081C124.537 38.7835 124.866 38.4212 125.031 38.1907C125.196 38.026 125.41 37.779 125.706 37.4332C126.134 36.9226 126.727 36.2475 127.518 35.4076C127.534 35.5887 127.534 35.7205 127.534 35.8522C127.534 39.0964 125.953 40.7762 125.262 40.7762C125.179 40.7762 125.113 40.7597 125.113 40.7268C125.113 40.595 125.179 40.4468 125.262 40.2986C125.344 40.1339 125.41 39.9692 125.41 39.7881C125.41 39.4093 125.081 39.1129 124.685 39.1129C124.175 39.1129 123.714 39.5905 123.714 40.1174C123.714 41.0067 124.471 41.616 125.591 41.616C126.958 41.616 128.045 40.7432 129.477 39.2446C130.284 38.4212 130.499 38.1248 130.499 37.9107C130.515 37.779 130.4 37.5978 130.153 37.5978ZM123.417 35.1606C123.417 35.9181 122.232 37.6143 119.975 38.2401C120.931 36.0004 122.528 34.8806 123.187 34.8806C123.302 34.8971 123.417 35.0124 123.417 35.1606ZM102.585 38.2565C103.54 36.0169 105.138 34.8971 105.796 34.8971C105.928 34.8971 106.027 35.0288 106.027 35.177C106.011 35.9181 104.841 37.6143 102.585 38.2565ZM97.4472 25.4444C98.1389 25.9714 98.5012 26.7289 98.5012 27.6512C98.5012 30.3684 96.2286 32.3445 95.0594 32.3445C94.8947 32.3445 94.7135 32.2951 94.4994 32.2457C94.2524 32.1799 94.0054 32.114 93.7254 32.114C93.429 32.114 93.1985 32.1963 93.0503 32.3281C93.3632 31.7682 93.6596 31.2247 93.9231 30.6977C95.1746 28.3757 96.1627 26.5313 97.4472 25.4444ZM89.9543 26.7948C89.9543 28.4746 89.1638 30.286 87.7311 31.8834C86.3643 33.415 84.8163 34.2878 83.5153 34.2878C82.2802 34.2878 81.5391 33.5302 81.5391 32.2457C81.5391 29.6108 84.4704 26.1196 89.3779 24.8022C89.7731 25.2798 89.9543 25.9055 89.9543 26.7948ZM111.725 42.8511C109.913 46.3424 108.547 48.4997 107.344 48.4997C106.999 48.4997 106.85 48.302 106.85 47.8739C106.834 46.6058 108.662 44.7285 111.725 42.8511Z" fill="#E88C01"/>
<path d="M93.8406 16.1078H82.033C81.8024 16.1078 81.6048 16.3054 81.6048 16.536V17.5076C81.6048 17.7381 81.8024 17.9357 82.033 17.9357H93.8406C94.0711 17.9357 94.2687 17.7381 94.2687 17.5076V16.536C94.2687 16.3054 94.0711 16.1078 93.8406 16.1078Z" fill="#E88C01"/>
<path d="M74.2929 8.25236V8.28529C74.3094 8.36763 74.3094 8.4335 74.3094 8.49938C74.3094 9.30631 73.6507 9.96503 72.8437 9.96503C72.0368 9.96503 71.3781 9.30631 71.3781 8.49938C71.3781 7.95593 71.6745 7.46189 72.1686 7.1984L72.2015 7.18193L71.5098 1.97804L69.2043 6.68789L69.2373 6.72083C69.5007 6.96785 69.6489 7.29721 69.6489 7.65951C69.6489 8.36763 69.0726 8.96048 68.348 8.96048C67.6399 8.96048 67.047 8.3841 67.047 7.65951C67.047 7.11606 67.3928 6.62202 67.9033 6.44087L67.9692 6.42441L65.993 0.775879L64.0498 6.375L64.0334 6.44087L64.0992 6.45734C64.6097 6.63849 64.9556 7.13253 64.9556 7.67597C64.9556 8.3841 64.3792 8.97695 63.6546 8.97695C62.9465 8.97695 62.3536 8.40057 62.3536 7.67597C62.3536 7.31368 62.5018 6.98432 62.7653 6.7373L62.7983 6.70436L60.4927 1.99451L59.8011 7.1984L59.834 7.21487C60.3116 7.46189 60.6245 7.9724 60.6245 8.51584C60.6245 9.32278 59.9658 9.9815 59.1588 9.9815C58.3519 9.9815 57.6932 9.32278 57.6932 8.51584C57.6932 8.44997 57.6932 8.3841 57.7096 8.30176V8.26882L53.8232 4.76114L57.9731 11.6777L57.9896 11.7106H74.0624L78.2288 4.76114L74.3423 8.23589L74.2929 8.25236Z" fill="#E88C01"/>
<path d="M73.8812 12.534H58.1543C57.8414 12.534 57.5944 12.781 57.5944 13.0939V14.3949C57.5944 14.7078 57.8414 14.9548 58.1543 14.9548H73.8812C74.1941 14.9548 74.4411 14.7078 74.4411 14.3949V13.0939C74.4411 12.781 74.1941 12.534 73.8812 12.534Z" fill="#E88C01"/>
<path d="M81.9013 15.5147H93.9724L97.1507 10.212L94.1535 12.8798L94.1206 12.8963V12.9292C94.137 12.9951 94.137 13.0445 94.137 13.0774C94.137 13.6703 93.643 14.1643 93.0502 14.1643C92.4573 14.1643 91.9633 13.6703 91.9633 13.0774C91.9633 12.6657 92.1938 12.3034 92.5396 12.1223L92.5726 12.1058L92.0456 8.137L90.3 11.727L90.3329 11.76C90.5306 11.9411 90.6294 12.1881 90.6294 12.4516C90.6294 12.9786 90.2012 13.4068 89.6742 13.4068C89.1472 13.4068 88.7191 12.9786 88.7191 12.4516C88.7191 12.0564 88.9826 11.6941 89.3613 11.5623L89.4272 11.5459L87.9286 7.24773L86.43 11.5459L86.4959 11.5623C86.8747 11.6941 87.1381 12.0564 87.1381 12.4516C87.1381 12.9786 86.71 13.4068 86.183 13.4068C85.656 13.4068 85.2279 12.9786 85.2279 12.4516C85.2279 12.1881 85.3267 11.9411 85.5243 11.76L85.5572 11.727L83.7951 8.15347L83.2682 12.1223L83.3011 12.1387C83.6634 12.3199 83.8775 12.6986 83.8775 13.0939C83.8775 13.6867 83.3834 14.1808 82.7906 14.1808C82.1977 14.1808 81.7037 13.6867 81.7037 13.0939C81.7037 13.0445 81.7037 12.9951 81.7202 12.9457V12.9127L78.7065 10.212L81.8684 15.4817L81.9013 15.5147Z" fill="#E88C01"/>
<path d="M50.2993 12.9129V12.9458C50.3158 12.9952 50.3158 13.0611 50.3158 13.094C50.3158 13.6869 49.8217 14.1809 49.2289 14.1809C48.636 14.1809 48.142 13.6869 48.142 13.094C48.142 12.6823 48.3725 12.32 48.7184 12.1389L48.7513 12.1224L48.2243 8.15361L46.4787 11.7436L46.5117 11.7766C46.7093 11.9577 46.8081 12.2047 46.8081 12.4682C46.8081 12.9952 46.3799 13.4234 45.8529 13.4234C45.326 13.4234 44.8978 12.9952 44.8978 12.4682C44.8978 12.073 45.1613 11.7107 45.54 11.579L45.6059 11.5625L44.1073 7.26433L42.6087 11.5625L42.6746 11.579C43.0534 11.7107 43.3169 12.073 43.3169 12.4682C43.3169 12.9952 42.8887 13.4234 42.3617 13.4234C41.8347 13.4234 41.4066 12.9952 41.4066 12.4682C41.4066 12.2047 41.5054 11.9577 41.703 11.7766L41.7359 11.7436L39.9574 8.15361L39.4304 12.1224L39.4633 12.1389C39.8256 12.32 40.0397 12.6988 40.0397 13.094C40.0397 13.6869 39.5457 14.1809 38.9528 14.1809C38.36 14.1809 37.866 13.6869 37.866 13.094C37.866 13.0446 37.866 12.9952 37.8824 12.9458V12.9129L34.8852 10.2121L38.0471 15.4819L38.0636 15.5148H50.1346L53.3129 10.2121L50.3158 12.8799L50.2993 12.9129Z" fill="#E88C01"/>
<path d="M50.0029 16.1078H38.1953C37.9648 16.1078 37.7672 16.3054 37.7672 16.536V17.5076C37.7672 17.7381 37.9648 17.9357 38.1953 17.9357H50.0029C50.2335 17.9357 50.4311 17.7381 50.4311 17.5076V16.536C50.4311 16.3054 50.2335 16.1078 50.0029 16.1078Z" fill="#E88C01"/>
<path d="M59.6701 14.1974C59.4066 14.1974 59.209 13.9833 59.209 13.7363C59.209 13.4728 59.4231 13.2752 59.6701 13.2752C59.9336 13.2752 60.1312 13.4893 60.1312 13.7363C60.1312 13.9998 59.9171 14.1974 59.6701 14.1974Z" fill="#254D18"/>
<path d="M59.67 14.2634C59.3736 14.2634 59.143 14.0329 59.143 13.7365C59.143 13.44 59.3736 13.2095 59.67 13.2095C59.9664 13.2095 60.197 13.44 60.197 13.7365C60.197 14.0329 59.9664 14.2634 59.67 14.2634ZM59.67 13.3412C59.4559 13.3412 59.2748 13.5224 59.2748 13.7365C59.2748 13.9505 59.4559 14.1317 59.67 14.1317C59.8841 14.1317 60.0652 13.9505 60.0652 13.7365C60.0652 13.5224 59.8841 13.3412 59.67 13.3412Z" fill="#254D18"/>
<path d="M62.8484 14.1974C62.5849 14.1974 62.3873 13.9833 62.3873 13.7363C62.3873 13.4728 62.6014 13.2752 62.8484 13.2752C63.1119 13.2752 63.3095 13.4893 63.3095 13.7363C63.3095 13.9998 63.0954 14.1974 62.8484 14.1974Z" fill="#254D18"/>
<path d="M62.8485 14.2634C62.5521 14.2634 62.3215 14.0329 62.3215 13.7365C62.3215 13.44 62.5521 13.2095 62.8485 13.2095C63.1449 13.2095 63.3755 13.44 63.3755 13.7365C63.3755 14.0329 63.1285 14.2634 62.8485 14.2634ZM62.8485 13.3412C62.6344 13.3412 62.4533 13.5224 62.4533 13.7365C62.4533 13.9505 62.6344 14.1317 62.8485 14.1317C63.0626 14.1317 63.2437 13.9505 63.2437 13.7365C63.2437 13.5224 63.0626 13.3412 62.8485 13.3412Z" fill="#254D18"/>
<path d="M66.0106 14.1974C65.7471 14.1974 65.5495 13.9833 65.5495 13.7363C65.5495 13.4728 65.7636 13.2752 66.0106 13.2752C66.2741 13.2752 66.4717 13.4893 66.4717 13.7363C66.4881 13.9998 66.2741 14.1974 66.0106 14.1974Z" fill="#254D18"/>
<path d="M66.0104 14.2634C65.714 14.2634 65.4834 14.0329 65.4834 13.7365C65.4834 13.44 65.714 13.2095 66.0104 13.2095C66.3068 13.2095 66.5374 13.44 66.5374 13.7365C66.5374 14.0329 66.3068 14.2634 66.0104 14.2634ZM66.0104 13.3412C65.7963 13.3412 65.6152 13.5224 65.6152 13.7365C65.6152 13.9505 65.7963 14.1317 66.0104 14.1317C66.2245 14.1317 66.4056 13.9505 66.4056 13.7365C66.4221 13.5224 66.241 13.3412 66.0104 13.3412Z" fill="#254D18"/>
<path d="M69.1884 14.1974C68.9249 14.1974 68.7273 13.9833 68.7273 13.7363C68.7273 13.4728 68.9414 13.2752 69.1884 13.2752C69.4354 13.2752 69.6495 13.4893 69.6495 13.7363C69.6495 13.9998 69.4519 14.1974 69.1884 14.1974Z" fill="#254D18"/>
<path d="M69.1887 14.2634C68.8923 14.2634 68.6617 14.0329 68.6617 13.7365C68.6617 13.44 68.8923 13.2095 69.1887 13.2095C69.4851 13.2095 69.7157 13.44 69.7157 13.7365C69.7157 14.0329 69.4851 14.2634 69.1887 14.2634ZM69.1887 13.3412C68.9746 13.3412 68.7934 13.5224 68.7934 13.7365C68.7934 13.9505 68.9746 14.1317 69.1887 14.1317C69.4028 14.1317 69.5839 13.9505 69.5839 13.7365C69.6004 13.5224 69.4192 13.3412 69.1887 13.3412Z" fill="#254D18"/>
<path d="M72.3672 14.1974C72.1037 14.1974 71.9061 13.9833 71.9061 13.7363C71.9061 13.4728 72.1202 13.2752 72.3672 13.2752C72.6307 13.2752 72.8283 13.4893 72.8283 13.7363C72.8283 13.9998 72.6142 14.1974 72.3672 14.1974Z" fill="#254D18"/>
<path d="M72.3672 14.2634C72.0708 14.2634 71.8402 14.0329 71.8402 13.7365C71.8402 13.44 72.0708 13.2095 72.3672 13.2095C72.6636 13.2095 72.8942 13.44 72.8942 13.7365C72.8942 14.0329 72.6636 14.2634 72.3672 14.2634ZM72.3672 13.3412C72.1531 13.3412 71.9719 13.5224 71.9719 13.7365C71.9719 13.9505 72.1531 14.1317 72.3672 14.1317C72.5813 14.1317 72.7624 13.9505 72.7624 13.7365C72.7624 13.5224 72.5813 13.3412 72.3672 13.3412Z" fill="#254D18"/>
<path d="M83.17 17.3755C82.9724 17.3755 82.8241 17.2273 82.8241 17.0297C82.8241 16.8321 82.9724 16.6839 83.17 16.6839C83.3676 16.6839 83.5158 16.8321 83.5158 17.0297C83.5158 17.2108 83.3676 17.3755 83.17 17.3755Z" fill="#254D18"/>
<path d="M83.1699 17.4416C82.9394 17.4416 82.7582 17.2604 82.7582 17.0299C82.7582 16.7993 82.9394 16.6182 83.1699 16.6182C83.4005 16.6182 83.5816 16.7993 83.5816 17.0299C83.5816 17.244 83.4005 17.4416 83.1699 17.4416ZM83.1699 16.7335C83.0052 16.7335 82.8899 16.8652 82.8899 17.0134C82.8899 17.1616 83.0217 17.2934 83.1699 17.2934C83.3346 17.2934 83.4499 17.1616 83.4499 17.0134C83.4499 16.8652 83.3346 16.7335 83.1699 16.7335Z" fill="#254D18"/>
<path d="M85.558 17.3752C85.3604 17.3752 85.2121 17.227 85.2121 17.0294C85.2121 16.8318 85.3604 16.6836 85.558 16.6836C85.7556 16.6836 85.9038 16.8318 85.9038 17.0294C85.9038 17.2105 85.7391 17.3752 85.558 17.3752Z" fill="#254D18"/>
<path d="M85.5579 17.4413C85.3273 17.4413 85.1462 17.2601 85.1462 17.0296C85.1462 16.799 85.3273 16.6179 85.5579 16.6179C85.7884 16.6179 85.9696 16.799 85.9696 17.0296C85.9696 17.2436 85.7719 17.4413 85.5579 17.4413ZM85.5579 16.7331C85.3932 16.7331 85.2779 16.8649 85.2779 17.0131C85.2779 17.1613 85.4097 17.2931 85.5579 17.2931C85.7225 17.2931 85.8378 17.1613 85.8378 17.0131C85.8378 16.8649 85.7061 16.7331 85.5579 16.7331Z" fill="#254D18"/>
<path d="M87.9291 17.3752C87.7315 17.3752 87.5833 17.227 87.5833 17.0294C87.5833 16.8318 87.7315 16.6836 87.9291 16.6836C88.1267 16.6836 88.2749 16.8318 88.2749 17.0294C88.2749 17.2105 88.1267 17.3752 87.9291 17.3752Z" fill="#254D18"/>
<path d="M87.9292 17.4413C87.6987 17.4413 87.5175 17.2601 87.5175 17.0296C87.5175 16.799 87.6987 16.6179 87.9292 16.6179C88.1598 16.6179 88.3409 16.799 88.3409 17.0296C88.3409 17.2436 88.1598 17.4413 87.9292 17.4413ZM87.9292 16.7331C87.7645 16.7331 87.6493 16.8649 87.6493 17.0131C87.6493 17.1613 87.781 17.2931 87.9292 17.2931C88.0774 17.2931 88.2092 17.1613 88.2092 17.0131C88.2092 16.8649 88.0939 16.7331 87.9292 16.7331Z" fill="#254D18"/>
<path d="M90.3171 17.3752C90.1195 17.3752 89.9713 17.227 89.9713 17.0294C89.9713 16.8318 90.1195 16.6836 90.3171 16.6836C90.5147 16.6836 90.663 16.8318 90.663 17.0294C90.663 17.2105 90.5147 17.3752 90.3171 17.3752Z" fill="#254D18"/>
<path d="M90.3172 17.4413C90.0866 17.4413 89.9055 17.2601 89.9055 17.0296C89.9055 16.799 90.0866 16.6179 90.3172 16.6179C90.5478 16.6179 90.7289 16.799 90.7289 17.0296C90.7289 17.2436 90.5478 17.4413 90.3172 17.4413ZM90.3172 16.7331C90.1525 16.7331 90.0373 16.8649 90.0373 17.0131C90.0373 17.1613 90.169 17.2931 90.3172 17.2931C90.4654 17.2931 90.5972 17.1613 90.5972 17.0131C90.5972 16.8649 90.4654 16.7331 90.3172 16.7331Z" fill="#254D18"/>
<path d="M92.6888 17.3752C92.4911 17.3752 92.3429 17.227 92.3429 17.0294C92.3429 16.8318 92.4911 16.6836 92.6888 16.6836C92.8864 16.6836 93.0346 16.8318 93.0346 17.0294C93.051 17.2105 92.8864 17.3752 92.6888 17.3752Z" fill="#254D18"/>
<path d="M92.6886 17.4413C92.458 17.4413 92.2769 17.2601 92.2769 17.0296C92.2769 16.799 92.458 16.6179 92.6886 16.6179C92.9191 16.6179 93.1003 16.799 93.1003 17.0296C93.1003 17.2436 92.9191 17.4413 92.6886 17.4413ZM92.6886 16.7331C92.5239 16.7331 92.4086 16.8649 92.4086 17.0131C92.4086 17.1613 92.5404 17.2931 92.6886 17.2931C92.8532 17.2931 92.9685 17.1613 92.9685 17.0131C92.9685 16.8649 92.8532 16.7331 92.6886 16.7331Z" fill="#254D18"/>
<path d="M39.3321 17.3755C39.1345 17.3755 38.9863 17.2273 38.9863 17.0297C38.9863 16.8321 39.1345 16.6839 39.3321 16.6839C39.5297 16.6839 39.6779 16.8321 39.6779 17.0297C39.6944 17.2108 39.5297 17.3755 39.3321 17.3755Z" fill="#254D18"/>
<path d="M39.332 17.4416C39.1015 17.4416 38.9203 17.2604 38.9203 17.0299C38.9203 16.7993 39.1015 16.6182 39.332 16.6182C39.5626 16.6182 39.7437 16.7993 39.7437 17.0299C39.7437 17.244 39.5626 17.4416 39.332 17.4416ZM39.332 16.7335C39.1673 16.7335 39.0521 16.8652 39.0521 17.0134C39.0521 17.1616 39.1838 17.2934 39.332 17.2934C39.4967 17.2934 39.612 17.1616 39.612 17.0134C39.612 16.8652 39.4967 16.7335 39.332 16.7335Z" fill="#254D18"/>
<path d="M41.7201 17.3752C41.5225 17.3752 41.3742 17.227 41.3742 17.0294C41.3742 16.8318 41.5225 16.6836 41.7201 16.6836C41.9177 16.6836 42.0659 16.8318 42.0659 17.0294C42.0659 17.2105 41.9177 17.3752 41.7201 17.3752Z" fill="#254D18"/>
<path d="M41.72 17.4413C41.4894 17.4413 41.3083 17.2601 41.3083 17.0296C41.3083 16.799 41.4894 16.6179 41.72 16.6179C41.9505 16.6179 42.1317 16.799 42.1317 17.0296C42.1317 17.2436 41.9505 17.4413 41.72 17.4413ZM41.72 16.7331C41.5553 16.7331 41.44 16.8649 41.44 17.0131C41.44 17.1613 41.5718 17.2931 41.72 17.2931C41.8847 17.2931 41.9999 17.1613 41.9999 17.0131C41.9999 16.8649 41.8847 16.7331 41.72 16.7331Z" fill="#254D18"/>
<path d="M44.1078 17.3752C43.9102 17.3752 43.762 17.227 43.762 17.0294C43.762 16.8318 43.9102 16.6836 44.1078 16.6836C44.3055 16.6836 44.4537 16.8318 44.4537 17.0294C44.4537 17.2105 44.289 17.3752 44.1078 17.3752Z" fill="#254D18"/>
<path d="M44.1079 17.4413C43.8774 17.4413 43.6962 17.2601 43.6962 17.0296C43.6962 16.799 43.8774 16.6179 44.1079 16.6179C44.3385 16.6179 44.5196 16.799 44.5196 17.0296C44.5196 17.2436 44.322 17.4413 44.1079 17.4413ZM44.1079 16.7331C43.9433 16.7331 43.828 16.8649 43.828 17.0131C43.828 17.1613 43.9597 17.2931 44.1079 17.2931C44.2726 17.2931 44.3879 17.1613 44.3879 17.0131C44.3879 16.8649 44.2562 16.7331 44.1079 16.7331Z" fill="#254D18"/>
<path d="M46.4795 17.3752C46.2819 17.3752 46.1336 17.227 46.1336 17.0294C46.1336 16.8318 46.2819 16.6836 46.4795 16.6836C46.6771 16.6836 46.8253 16.8318 46.8253 17.0294C46.8253 17.2105 46.6771 17.3752 46.4795 17.3752Z" fill="#254D18"/>
<path d="M46.4795 17.4413C46.249 17.4413 46.0678 17.2601 46.0678 17.0296C46.0678 16.799 46.249 16.6179 46.4795 16.6179C46.7101 16.6179 46.8913 16.799 46.8913 17.0296C46.8913 17.2436 46.7101 17.4413 46.4795 17.4413ZM46.4795 16.7331C46.3149 16.7331 46.1996 16.8649 46.1996 17.0131C46.1996 17.1613 46.3313 17.2931 46.4795 17.2931C46.6442 17.2931 46.7595 17.1613 46.7595 17.0131C46.7595 16.8649 46.6442 16.7331 46.4795 16.7331Z" fill="#254D18"/>
<path d="M48.8673 17.3752C48.6696 17.3752 48.5214 17.227 48.5214 17.0294C48.5214 16.8318 48.6696 16.6836 48.8673 16.6836C49.0649 16.6836 49.2131 16.8318 49.2131 17.0294C49.2131 17.2105 49.0484 17.3752 48.8673 17.3752Z" fill="#254D18"/>
<path d="M48.8673 17.4413C48.6367 17.4413 48.4556 17.2601 48.4556 17.0296C48.4556 16.799 48.6367 16.6179 48.8673 16.6179C49.0978 16.6179 49.279 16.799 49.279 17.0296C49.279 17.2436 49.0814 17.4413 48.8673 17.4413ZM48.8673 16.7331C48.7026 16.7331 48.5873 16.8649 48.5873 17.0131C48.5873 17.1613 48.7191 17.2931 48.8673 17.2931C49.032 17.2931 49.1472 17.1613 49.1472 17.0131C49.1472 16.8649 49.0155 16.7331 48.8673 16.7331Z" fill="#254D18"/>
</svg>
